<?xml version="1.0" standalone="no"?>
<!DOCTYPE svg PUBLIC "-//W3C//DTD SVG 1.1//EN" "http://www.w3.org/Graphics/SVG/1.1/DTD/svg11.dtd" >
<svg xmlns="http://www.w3.org/2000/svg" xmlns:xlink="http://www.w3.org/1999/xlink" version="1.1">
<metadata>
Created by FontForge 20170731 at Mon Aug  1 15:43:41 2011
 By Aleksey,,,
Typeface (c) Bou Fonts. 2011. All Rights Reserved
</metadata>
<defs>
<font id="SquareFontOutline" horiz-adv-x="1185" >
  <font-face 
    font-family="SquareFont Outline"
    font-weight="400"
    font-stretch="normal"
    units-per-em="2048"
    panose-1="2 0 5 0 0 0 0 0 0 0"
    ascent="1638"
    descent="-410"
    x-height="1438"
    cap-height="1438"
    bbox="100 -320 3455 1716"
    underline-thickness="150"
    underline-position="-442"
    unicode-range="U+0020-F002"
  />
<missing-glyph horiz-adv-x="1031" 
d="M881 50v1336h-731v-1336h731zM197 98h637v1240h-637v-1240zM363 1145q-11 -9 16 6q35 20 78 20q65 0 103.5 -39t38.5 -105q0 -79 -77 -216t-77 -204q0 -45 26 -118h-20q-15 64 -15 103q0 53 36.5 107t96.5 132q59 75 79 119t20 86q0 66 -45.5 105t-123.5 39
q-49 0 -93 -26q-23 -13 -43 -30v21zM414 327q0 -1 1 -2l57 -68q1 -1 0 -1q-4 0 2 5l52 60q3 3 3 5q0 -1 -2 3l-52 56l-3 4q1 0 -1 -3l-54 -55zM100 0v1436h831v-1436h-831zM147 1388h737v-1340h-737v1340zM313 1146q40 36 68 52q56 32 118 32q97 0 158 -52.5t61 -141.5
q0 -53 -23.5 -104.5t-86.5 -131.5q-59 -76 -90.5 -123t-31.5 -85q0 -33 29 -153h-80q-40 114 -40 168q0 80 77 217t77 203q0 45 -24 69.5t-68 24.5q-30 0 -53 -13t-91 -71v109zM381 365l54 57q19 17 37 17q19 0 39 -18l54 -60q14 -18 14 -35q0 -21 -15 -38l-54 -61
q-21 -21 -38 -21q-22 0 -38 18l-58 70q-12 15 -12 33q0 19 17 38z" />
    <glyph glyph-name=".notdef" horiz-adv-x="1031" 
d="M881 50v1336h-731v-1336h731zM197 98h637v1240h-637v-1240zM363 1145q-11 -9 16 6q35 20 78 20q65 0 103.5 -39t38.5 -105q0 -79 -77 -216t-77 -204q0 -45 26 -118h-20q-15 64 -15 103q0 53 36.5 107t96.5 132q59 75 79 119t20 86q0 66 -45.5 105t-123.5 39
q-49 0 -93 -26q-23 -13 -43 -30v21zM414 327q0 -1 1 -2l57 -68q1 -1 0 -1q-4 0 2 5l52 60q3 3 3 5q0 -1 -2 3l-52 56l-3 4q1 0 -1 -3l-54 -55zM100 0v1436h831v-1436h-831zM147 1388h737v-1340h-737v1340zM313 1146q40 36 68 52q56 32 118 32q97 0 158 -52.5t61 -141.5
q0 -53 -23.5 -104.5t-86.5 -131.5q-59 -76 -90.5 -123t-31.5 -85q0 -33 29 -153h-80q-40 114 -40 168q0 80 77 217t77 203q0 45 -24 69.5t-68 24.5q-30 0 -53 -13t-91 -71v109zM381 365l54 57q19 17 37 17q19 0 39 -18l54 -60q14 -18 14 -35q0 -21 -15 -38l-54 -61
q-21 -21 -38 -21q-22 0 -38 18l-58 70q-12 15 -12 33q0 19 17 38z" />
    <glyph glyph-name=".null" horiz-adv-x="0" 
 />
    <glyph glyph-name="nonmarkingreturn" horiz-adv-x="508" 
 />
    <glyph glyph-name="space" unicode=" " horiz-adv-x="508" 
 />
    <glyph glyph-name="space" unicode="&#xa0;" horiz-adv-x="508" 
 />
    <glyph glyph-name="exclam" unicode="!" horiz-adv-x="512" 
d="M362 428v960h-212v-960h212zM150 249v-199h212v199h-212zM100 378v1060h312v-1060h-312zM412 299v-299h-312v299h312z" />
    <glyph glyph-name="quotedbl" unicode="&#x22;" horiz-adv-x="738" 
d="M150 1388v-339h138v339h-138zM338 1438v-439h-238v439h238zM450 1388v-339h138v339h-138zM638 1438v-439h-238v439h238z" />
    <glyph glyph-name="numbersign" unicode="#" 
d="M703 50h211v365h121v176h-121v272h121v176h-121v349h-211v-349h-221v349h-212v-349h-120v-176h120v-272h-120v-176h120v-365h212v365h221v-365zM532 641h121v172h-121v-172zM653 365h-121v-365h-312v365h-120v276h120v172h-120v276h120v349h312v-349h121v349h311v-349
h121v-276h-121v-172h121v-276h-121v-365h-311v365zM482 863h221v-272h-221v272z" />
    <glyph glyph-name="dollar" unicode="$" 
d="M150 238v-188h390v-162h109v162h386v757h-673v393h673v188h-386v145h-109v-145h-390v-757h689v-393h-689zM789 288v293h-689v857h390v145h209v-145h386v-288h-673v-293h673v-857h-386v-162h-209v162h-390v288h689z" />
    <glyph glyph-name="percent" unicode="%" horiz-adv-x="1588" 
d="M150 1388v-644h417v644h-417zM445 1269h-164v-406h164v406zM617 1438v-744h-517v744h517zM495 813h-264v506h264v-506zM1021 674v-644h417v644h-417zM1316 555h-164v-406h164v406zM1488 724v-744h-517v744h517zM1366 99h-264v506h264v-506zM1308 1388h-202l-858 -1338
h203zM478 0h-321l921 1438h321z" />
    <glyph glyph-name="ampersand" unicode="&#x26;" 
d="M412 581v-293h377v293h-377zM362 807v393h673v188h-885v-1338h885v1013h-196v-256h-477zM839 631v-393h-477v393h477zM789 857v256h296v-1113h-985v1438h985v-288h-673v-293h377z" />
    <glyph glyph-name="quotesingle" unicode="'" horiz-adv-x="438" 
d="M150 1388v-339h138v339h-138zM338 1438v-439h-238v439h238z" />
    <glyph glyph-name="parenleft" unicode="(" horiz-adv-x="642" 
d="M492 238h-146v962h146v188h-256l-86 -106v-1126l85 -106h257v188zM542 0h-331l-111 138v1162l112 138h330v-288h-146v-862h146v-288z" />
    <glyph glyph-name="parenright" unicode=")" horiz-adv-x="642" 
d="M150 50h257l85 106v1126l-86 106h-256v-188h146v-962h-146v-188zM100 288h146v862h-146v288h330l112 -138v-1162l-111 -138h-331v288z" />
    <glyph glyph-name="asterisk" unicode="*" horiz-adv-x="629" 
d="M304 1388v-130l-107 48l-26 -40l114 -61l-84 -91l28 -24l78 103l83 -108l27 25l-67 106l111 47l-19 38l-103 -32v119h-35zM389 1438v-101l79 25l61 -124l-105 -45l58 -92l-98 -90l-77 100l-70 -94l-108 92l75 82l-104 56l78 122l76 -34v103h135z" />
    <glyph glyph-name="plus" unicode="+" horiz-adv-x="923" 
d="M773 631v176h-215v215h-172v-215h-236v-176h236v-246h172v246h215zM608 581v-246h-272v246h-236v276h236v215h272v-215h215v-276h-215z" />
    <glyph glyph-name="comma" unicode="," horiz-adv-x="518" 
d="M179 -182h92l97 212v219h-211v-199h131zM209 0h-102v299h311v-279l-115 -252h-203z" />
    <glyph glyph-name="hyphen" unicode="-" horiz-adv-x="744" 
d="M150 631h444v176h-444v-176zM100 857h544v-276h-544v276z" />
    <glyph glyph-name="hyphen" unicode="&#xad;" horiz-adv-x="744" 
d="M150 631h444v176h-444v-176zM100 857h544v-276h-544v276z" />
    <glyph glyph-name="period" unicode="." horiz-adv-x="512" 
d="M150 249v-199h212v199h-212zM412 299v-299h-312v299h312z" />
    <glyph glyph-name="slash" unicode="/" horiz-adv-x="1011" 
d="M840 1388h-208l-462 -1338h209zM415 0h-315l496 1438h315z" />
    <glyph glyph-name="zero" unicode="0" 
d="M150 1388v-1338h885v1338h-885zM789 1150h-377v-862h377v862zM1085 1438v-1438h-985v1438h985zM839 238h-477v962h477v-962z" />
    <glyph glyph-name="one" unicode="1" horiz-adv-x="512" 
d="M362 1388h-212v-1338h212v1338zM412 0h-312v1438h312v-1438z" />
    <glyph glyph-name="two" unicode="2" 
d="M362 238v393h673v757h-885v-188h689v-393h-689v-757h885v188h-673zM1085 288v-288h-985v857h689v293h-689v288h985v-857h-673v-293h673z" />
    <glyph glyph-name="three" unicode="3" 
d="M839 1200v-393h-689v-176h689v-393h-689v-188h885v1338h-885v-188h689zM100 1150v288h985v-1438h-985v288h689v293h-689v276h689v293h-689z" />
    <glyph glyph-name="four" unicode="4" 
d="M839 631v-581h196v1338h-196v-581h-477v581h-212v-757h689zM100 581v857h312v-581h377v581h296v-1438h-296v581h-689z" />
    <glyph glyph-name="five" unicode="5" 
d="M839 631v-393h-689v-188h885v757h-673v393h673v188h-885v-757h689zM100 581v857h985v-288h-673v-293h673v-857h-985v288h689v293h-689z" />
    <glyph glyph-name="six" unicode="6" 
d="M1035 1200v188h-885v-1338h885v757h-673v393h673zM412 581v-293h377v293h-377zM412 1150v-293h673v-857h-985v1438h985v-288h-673zM839 631v-393h-477v393h477z" />
    <glyph glyph-name="seven" unicode="7" 
d="M839 50h196v1338h-885v-188h689v-1150zM789 1150h-689v288h985v-1438h-296v1150z" />
    <glyph glyph-name="eight" unicode="8" 
d="M150 1388v-1338h885v1338h-885zM412 581v-293h377v293h-377zM412 1150v-293h377v293h-377zM1085 1438v-1438h-985v1438h985zM839 631v-393h-477v393h477zM839 1200v-393h-477v393h477z" />
    <glyph glyph-name="nine" unicode="9" 
d="M150 238v-188h885v1338h-885v-757h689v-393h-689zM412 1150v-293h377v293h-377zM789 288v293h-689v857h985v-1438h-985v288h689zM839 1200v-393h-477v393h477z" />
    <glyph glyph-name="colon" unicode=":" horiz-adv-x="512" 
d="M150 900v-200h212v200h-212zM412 950v-300h-312v300h312zM150 249v-199h212v199h-212zM412 299v-299h-312v299h312z" />
    <glyph glyph-name="semicolon" unicode=";" horiz-adv-x="518" 
d="M157 900v-200h212v200h-212zM419 950v-300h-312v300h312zM179 -182h92l97 212v219h-211v-199h131zM209 0h-102v299h311v-279l-115 -252h-203z" />
    <glyph glyph-name="semicolon" unicode="&#x37e;" horiz-adv-x="518" 
d="M157 900v-200h212v200h-212zM419 950v-300h-312v300h312zM179 -182h92l97 212v219h-211v-199h131zM209 0h-102v299h311v-279l-115 -252h-203z" />
    <glyph glyph-name="less" unicode="&#x3c;" horiz-adv-x="923" 
d="M150 656l623 -311v171l-525 304l525 237v173l-623 -241v-333zM100 1023l723 280v-278l-466 -210l466 -270v-281l-723 361v398z" />
    <glyph glyph-name="equal" unicode="=" horiz-adv-x="923" 
d="M150 901h623v176h-623v-176zM100 1127h723v-276h-723v276zM150 487h623v176h-623v-176zM100 713h723v-276h-723v276z" />
    <glyph glyph-name="greater" unicode="&#x3e;" horiz-adv-x="923" 
d="M773 989l-623 241v-173l526 -237l-526 -304v-171l623 311v333zM823 625l-723 -361v281l466 270l-466 210v278l723 -280v-398z" />
    <glyph glyph-name="question" unicode="?" 
d="M362 411v220h673v757h-885v-188h689v-393h-689v-396h212zM150 249v-199h212v199h-212zM100 361v496h689v293h-689v288h985v-857h-673v-220h-312zM412 299v-299h-312v299h312z" />
    <glyph glyph-name="at" unicode="@" 
d="M789 631v153h-107v-153h107zM500 970v-513h535v931h-885v-1338h885v188h-673v962h477v-230h-339zM632 581v253h207v-253h-207zM789 1020v130h-377v-862h673v-288h-985v1438h985v-1031h-635v613h339z" />
    <glyph glyph-name="A" unicode="A" 
d="M839 50h196v1338h-885v-1338h212v581h477v-581zM412 1150v-293h377v293h-377zM789 581h-377v-581h-312v1438h985v-1438h-296v581zM839 1200v-393h-477v393h477z" />
    <glyph glyph-name="B" unicode="B" 
d="M150 1388v-1338h885v483l-120 181l120 181v493h-885zM412 581v-293h377v293h-377zM412 1150v-293h377v293h-377zM1085 1438v-558l-110 -166l110 -166v-548h-985v1438h985zM839 631v-393h-477v393h477zM839 1200v-393h-477v393h477z" />
    <glyph glyph-name="C" unicode="C" 
d="M362 1200h673v188h-885v-1338h885v188h-673v962zM412 288h673v-288h-985v1438h985v-288h-673v-862z" />
    <glyph glyph-name="D" unicode="D" 
d="M950 50l85 106v1126l-86 106h-799v-1338h800zM789 1150h-377v-862h377v862zM100 0v1438h873l112 -138v-1162l-111 -138h-874zM839 238h-477v962h477v-962z" />
    <glyph glyph-name="E" unicode="E" 
d="M1035 1200v188h-885v-1338h885v188h-673v393h673v176h-673v393h673zM412 1150v-293h673v-276h-673v-293h673v-288h-985v1438h985v-288h-673z" />
    <glyph glyph-name="F" unicode="F" 
d="M362 631h673v176h-673v393h673v188h-885v-1338h212v581zM412 0h-312v1438h985v-288h-673v-293h673v-276h-673v-581z" />
    <glyph glyph-name="G" unicode="G" 
d="M568 631h271v-393h-477v962h673v188h-885v-1338h885v757h-467v-176zM518 857h567v-857h-985v1438h985v-288h-673v-862h377v293h-271v276z" />
    <glyph glyph-name="H" unicode="H" 
d="M362 631h477v-581h196v1338h-196v-581h-477v581h-212v-1338h212v581zM412 0h-312v1438h312v-581h377v581h296v-1438h-296v581h-377v-581z" />
    <glyph glyph-name="I" unicode="I" horiz-adv-x="512" 
d="M362 1388h-212v-1338h212v1338zM412 0h-312v1438h312v-1438z" />
    <glyph glyph-name="J" unicode="J" 
d="M150 598v-548h885v1338h-196v-1150h-477v360h-212zM412 648v-360h377v1150h296v-1438h-985v648h312z" />
    <glyph glyph-name="K" unicode="K" horiz-adv-x="1207" 
d="M362 682l465 -632h187l-440 687l439 651h-186l-465 -632v632h-212v-1338h212v632zM412 0h-312v1438h312v-530l390 530h305l-473 -702l471 -736h-303l-390 530v-530z" />
    <glyph glyph-name="L" unicode="L" 
d="M362 1388h-212v-1338h885v188h-673v1150zM412 288h673v-288h-985v1438h312v-1150z" />
    <glyph glyph-name="M" unicode="M" horiz-adv-x="1298" 
d="M362 757l240 -707h117l234 712v-712h195v1338h-203l-293 -810l-283 810h-219v-1338h212v707zM412 0h-312v1438h304l249 -711l257 711h288v-1438h-295v449l-147 -449h-190l-154 454v-454z" />
    <glyph glyph-name="N" unicode="N" 
d="M362 926l467 -876h206v1338h-196v-851l-467 851h-222v-1338h212v876zM412 0h-312v1438h301l388 -706v706h296v-1438h-286l-387 726v-726z" />
    <glyph glyph-name="O" unicode="O" 
d="M150 1388v-1338h885v1338h-885zM789 1150h-377v-862h377v862zM1085 1438v-1438h-985v1438h985zM839 238h-477v962h477v-962z" />
    <glyph glyph-name="P" unicode="P" 
d="M362 631h673v757h-885v-1338h212v581zM412 1150v-293h377v293h-377zM412 0h-312v1438h985v-857h-673v-581zM839 1200v-393h-477v393h477z" />
    <glyph glyph-name="Q" unicode="Q" horiz-adv-x="1194" 
d="M789 384v766h-377v-862h143l-88 169h286zM858 -182h156l-115 232h136v1338h-885v-1338h586zM722 407h-173l88 -169h-275v962h477v-1029zM706 0h-606v1438h985v-1438h-105l114 -232h-266z" />
    <glyph glyph-name="R" unicode="R" horiz-adv-x="1202" 
d="M412 1150v-293h377v293h-377zM362 50v581h131l336 -581h188l-319 581h337v757h-885v-1338h212zM839 1200v-393h-477v393h477zM100 0v1438h985v-857h-302l319 -581h-302l-336 581h-52v-581h-312z" />
    <glyph glyph-name="S" unicode="S" 
d="M839 631v-393h-689v-188h885v757h-673v393h673v188h-885v-757h689zM100 581v857h985v-288h-673v-293h673v-857h-985v288h689v293h-689z" />
    <glyph glyph-name="T" unicode="T" 
d="M504 50h211v1150h320v188h-885v-188h354v-1150zM454 1150h-354v288h985v-288h-320v-1150h-311v1150z" />
    <glyph glyph-name="U" unicode="U" 
d="M839 238h-477v1150h-212v-1338h885v1338h-196v-1150zM789 1438h296v-1438h-985v1438h312v-1150h377v1150z" />
    <glyph glyph-name="V" unicode="V" horiz-adv-x="1197" 
d="M597 218l-225 1170h-209l308 -1338h278l286 1338h-194zM800 1438h297l-307 -1438h-359l-331 1438h314l185 -966z" />
    <glyph glyph-name="W" unicode="W" horiz-adv-x="1586" 
d="M924 50h268l234 1338h-216l-149 -1079l-160 1079h-216l-160 -1079l-150 1079h-215l233 -1338h268l132 755zM793 513l-90 -513h-352l-251 1438h319l108 -777l115 777h302l115 -777l108 777h319l-252 -1438h-352z" />
    <glyph glyph-name="X" unicode="X" horiz-adv-x="1219" 
d="M180 51h190l232 473l227 -473h206l-306 644h-33l343 693h-190l-232 -473l-227 473h-206l306 -644h33zM442 694h16l-354 744h317l196 -409l201 409h301l-342 -693h-16l354 -744h-317l-196 408l-201 -408h-301z" />
    <glyph glyph-name="Y" unicode="Y" horiz-adv-x="1215" 
d="M1034 1388h-190l-232 -473l-227 473h-206l315 -663v-675h212v675zM756 713v-713h-312v713l-344 725h317l196 -409l200 409h302z" />
    <glyph glyph-name="Z" unicode="Z" 
d="M150 255v-205h885v188h-626l626 945v205h-885v-188h637zM693 1150h-593v288h985v-270l-583 -880h583v-288h-985v270z" />
    <glyph glyph-name="bracketleft" unicode="[" horiz-adv-x="641" 
d="M491 238h-146v962h146v188h-340l-1 -1338h341v188zM541 0h-441l1 1438h440v-288h-146v-862h146v-288z" />
    <glyph glyph-name="backslash" unicode="\" horiz-adv-x="1011" 
d="M632 50h208l-461 1338h-209zM100 1438h315l496 -1438h-315z" />
    <glyph glyph-name="bracketright" unicode="]" horiz-adv-x="641" 
d="M150 50h341l-1 1338h-340v-188h146v-962h-146v-188zM100 288h146v862h-146v288h440l1 -1438h-441v288z" />
    <glyph glyph-name="asciicircum" unicode="^" horiz-adv-x="1220" 
d="M485 1388l-305 -636h167l299 537l233 -537h169l-237 636h-326zM845 1438l275 -736h-274l-206 474l-264 -474h-276l354 736h391z" />
    <glyph glyph-name="underscore" unicode="_" horiz-adv-x="1127" 
d="M150 6v-72h827v72h-827zM1027 56v-172h-927v172h927z" />
    <glyph glyph-name="grave" unicode="`" horiz-adv-x="519" 
d="M179 1627l74 -154h87l-73 154h-88zM299 1677l120 -254h-197l-122 254h199z" />
    <glyph glyph-name="a" unicode="a" 
d="M839 50h196v1338h-885v-1338h212v581h477v-581zM412 1150v-293h377v293h-377zM789 581h-377v-581h-312v1438h985v-1438h-296v581zM839 1200v-393h-477v393h477z" />
    <glyph glyph-name="b" unicode="b" 
d="M150 1388v-1338h885v483l-120 181l120 181v493h-885zM412 581v-293h377v293h-377zM412 1150v-293h377v293h-377zM1085 1438v-558l-110 -166l110 -166v-548h-985v1438h985zM839 631v-393h-477v393h477zM839 1200v-393h-477v393h477z" />
    <glyph glyph-name="c" unicode="c" 
d="M362 1200h673v188h-885v-1338h885v188h-673v962zM412 288h673v-288h-985v1438h985v-288h-673v-862z" />
    <glyph glyph-name="d" unicode="d" 
d="M950 50l85 106v1126l-86 106h-799v-1338h800zM789 1150h-377v-862h377v862zM100 0v1438h873l112 -138v-1162l-111 -138h-874zM839 238h-477v962h477v-962z" />
    <glyph glyph-name="e" unicode="e" 
d="M1035 1200v188h-885v-1338h885v188h-673v393h673v176h-673v393h673zM412 1150v-293h673v-276h-673v-293h673v-288h-985v1438h985v-288h-673z" />
    <glyph glyph-name="f" unicode="f" 
d="M362 631h673v176h-673v393h673v188h-885v-1338h212v581zM412 0h-312v1438h985v-288h-673v-293h673v-276h-673v-581z" />
    <glyph glyph-name="g" unicode="g" 
d="M568 631h271v-393h-477v962h673v188h-885v-1338h885v757h-467v-176zM518 857h567v-857h-985v1438h985v-288h-673v-862h377v293h-271v276z" />
    <glyph glyph-name="h" unicode="h" 
d="M362 631h477v-581h196v1338h-196v-581h-477v581h-212v-1338h212v581zM412 0h-312v1438h312v-581h377v581h296v-1438h-296v581h-377v-581z" />
    <glyph glyph-name="i" unicode="i" horiz-adv-x="512" 
d="M362 1388h-212v-1338h212v1338zM412 0h-312v1438h312v-1438z" />
    <glyph glyph-name="j" unicode="j" 
d="M150 598v-548h885v1338h-196v-1150h-477v360h-212zM412 648v-360h377v1150h296v-1438h-985v648h312z" />
    <glyph glyph-name="k" unicode="k" horiz-adv-x="1207" 
d="M362 682l465 -632h187l-440 687l439 651h-186l-465 -632v632h-212v-1338h212v632zM412 0h-312v1438h312v-530l390 530h305l-473 -702l471 -736h-303l-390 530v-530z" />
    <glyph glyph-name="l" unicode="l" 
d="M362 1388h-212v-1338h885v188h-673v1150zM412 288h673v-288h-985v1438h312v-1150z" />
    <glyph glyph-name="m" unicode="m" horiz-adv-x="1298" 
d="M362 757l240 -707h117l234 712v-712h195v1338h-203l-293 -810l-283 810h-219v-1338h212v707zM412 0h-312v1438h304l249 -711l257 711h288v-1438h-295v449l-147 -449h-190l-154 454v-454z" />
    <glyph glyph-name="n" unicode="n" 
d="M362 926l467 -876h206v1338h-196v-851l-467 851h-222v-1338h212v876zM412 0h-312v1438h301l388 -706v706h296v-1438h-286l-387 726v-726z" />
    <glyph glyph-name="o" unicode="o" 
d="M150 1388v-1338h885v1338h-885zM789 1150h-377v-862h377v862zM1085 1438v-1438h-985v1438h985zM839 238h-477v962h477v-962z" />
    <glyph glyph-name="p" unicode="p" 
d="M362 631h673v757h-885v-1338h212v581zM412 1150v-293h377v293h-377zM412 0h-312v1438h985v-857h-673v-581zM839 1200v-393h-477v393h477z" />
    <glyph glyph-name="q" unicode="q" horiz-adv-x="1194" 
d="M789 384v766h-377v-862h143l-88 169h286zM858 -182h156l-115 232h136v1338h-885v-1338h586zM722 407h-173l88 -169h-275v962h477v-1029zM706 0h-606v1438h985v-1438h-105l114 -232h-266z" />
    <glyph glyph-name="r" unicode="r" horiz-adv-x="1202" 
d="M412 1150v-293h377v293h-377zM362 50v581h131l336 -581h188l-319 581h337v757h-885v-1338h212zM839 1200v-393h-477v393h477zM100 0v1438h985v-857h-302l319 -581h-302l-336 581h-52v-581h-312z" />
    <glyph glyph-name="s" unicode="s" 
d="M839 631v-393h-689v-188h885v757h-673v393h673v188h-885v-757h689zM100 581v857h985v-288h-673v-293h673v-857h-985v288h689v293h-689z" />
    <glyph glyph-name="t" unicode="t" 
d="M504 50h211v1150h320v188h-885v-188h354v-1150zM454 1150h-354v288h985v-288h-320v-1150h-311v1150z" />
    <glyph glyph-name="u" unicode="u" 
d="M839 238h-477v1150h-212v-1338h885v1338h-196v-1150zM789 1438h296v-1438h-985v1438h312v-1150h377v1150z" />
    <glyph glyph-name="v" unicode="v" horiz-adv-x="1197" 
d="M597 218l-225 1170h-209l308 -1338h278l286 1338h-194zM800 1438h297l-307 -1438h-359l-331 1438h314l185 -966z" />
    <glyph glyph-name="w" unicode="w" horiz-adv-x="1586" 
d="M924 50h268l234 1338h-216l-149 -1079l-160 1079h-216l-160 -1079l-150 1079h-215l233 -1338h268l132 755zM793 513l-90 -513h-352l-251 1438h319l108 -777l115 777h302l115 -777l108 777h319l-252 -1438h-352z" />
    <glyph glyph-name="x" unicode="x" horiz-adv-x="1219" 
d="M180 51h190l232 473l227 -473h206l-306 644h-33l343 693h-190l-232 -473l-227 473h-206l306 -644h33zM442 694h16l-354 744h317l196 -409l201 409h301l-342 -693h-16l354 -744h-317l-196 408l-201 -408h-301z" />
    <glyph glyph-name="y" unicode="y" horiz-adv-x="1215" 
d="M1034 1388h-190l-232 -473l-227 473h-206l315 -663v-675h212v675zM756 713v-713h-312v713l-344 725h317l196 -409l200 409h302z" />
    <glyph glyph-name="z" unicode="z" 
d="M150 255v-205h885v188h-626l626 945v205h-885v-188h637zM693 1150h-593v288h985v-270l-583 -880h583v-288h-985v270z" />
    <glyph glyph-name="braceleft" unicode="{" horiz-adv-x="762" 
d="M178 718l92 -68v-494l85 -106h257v188h-146v400l-71 81l71 101v380h146v188h-256l-86 -106v-476zM220 827v473l112 138h330v-288h-146v-346l-57 -81l57 -66v-369h146v-288h-331l-111 138v487l-120 89z" />
    <glyph glyph-name="bar" unicode="|" horiz-adv-x="387" 
d="M150 1603v-1704h87v1704h-87zM287 1653v-1804h-187v1804h187z" />
    <glyph glyph-name="braceright" unicode="}" horiz-adv-x="762" 
d="M492 806v476l-86 106h-256v-188h146v-380l70 -101l-70 -81v-400h-146v-188h257l85 106v494l92 68zM662 714l-120 -89v-487l-111 -138h-331v288h146v369l57 66l-57 81v346h-146v288h330l112 -138v-473z" />
    <glyph glyph-name="asciitilde" unicode="~" horiz-adv-x="914" 
d="M165 789l50 -94q88 101 237 8.5t297 80.5l-61 75q-125 -114 -240 -30.5t-283 -39.5zM446 891.5q113 -82.5 247 40.5l121 -149q-203 -237 -352 -144.5t-257 -30.5l-105 196q233 170 346 87.5z" />
    <glyph glyph-name="exclamdown" unicode="&#xa1;" horiz-adv-x="512" 
d="M150 1010v-960h212v960h-212zM362 1189v199h-212v-199h212zM412 1060v-1060h-312v1060h312zM100 1139v299h312v-299h-312z" />
    <glyph glyph-name="cent" unicode="&#xa2;" 
d="M1035 951v188h-386v145h-109v-145h-390v-757h390v-169h109v169h386v176h-673v393h673zM412 901v-293h673v-276h-386v-169h-209v169h-390v857h390v145h209v-145h386v-288h-673z" />
    <glyph glyph-name="sterling" unicode="&#xa3;" 
d="M299 1388v-581h-146v-176h146v-393h-149v-188h885v188h-525v393h168v176h-168v393h329v-191h196v379h-736zM1085 1438v-479h-296v191h-229v-293h168v-276h-168v-293h525v-288h-985v288h149v293h-146v276h146v581h836z" />
    <glyph glyph-name="currency" unicode="&#xa4;" horiz-adv-x="1061" 
d="M528 1011q-81 0 -167 -45l-101 136l-50 -51l96 -129q-110 -117 -110 -260q0 -119 77 -225l-104 -113l50 -52l105 113q98 -73 204 -73q94 0 189 61l88 -118l51 51l-87 116q89 111 89 240q0 116 -73 221l106 115l-50 51l-105 -114q-101 76 -208 76zM528 872
q-79 0 -134.5 -59t-55.5 -142t55.5 -142t134.5 -59q77 0 133 59t56 142t-56 142t-133 59zM730 1002l110 120l121 -123l-112 -121q59 -84 59 -216q0 -147 -75 -241l89 -120l-122 -123l-95 128q-68 -44 -177 -44q-122 0 -198 56l-110 -119l-120 124l108 118q-62 86 -62 221
q0 163 95 264l-97 130l121 123l111 -149q58 31 152 31q124 0 202 -59zM697 848q70 -74 70 -177t-70 -177t-169 -74q-100 0 -170 74t-70 177t70 177t170 74q99 0 169 -74z" />
    <glyph glyph-name="yen" unicode="&#xa5;" horiz-adv-x="1215" 
d="M320 732v-165h174v-149h-174v-165h174v-203h212v203h162v165h-162v149h162v165h-158l324 656h-190l-232 -473l-227 473h-206l312 -656h-171zM412 782l-312 656h317l196 -409l200 409h302l-325 -656h128v-265h-162v-49h162v-265h-162v-203h-312v203h-174v265h174v49h-174
v265h142z" />
    <glyph glyph-name="brokenbar" unicode="&#xa6;" horiz-adv-x="387" 
d="M150 645v-746h87v746h-87zM237 874v729h-87v-729h87zM287 695v-846h-187v846h187zM100 824v829h187v-829h-187z" />
    <glyph glyph-name="section" unicode="&#xa7;" horiz-adv-x="1186" 
d="M151 306h688v-381h-689v-188h885v1338h-672v381h673v188h-885v-1338zM412 837v-293h378v293h-378zM101 1694h985v-288h-673v-281h672v-1438h-985v288h689v281h-688v1438zM840 887v-393h-478v393h478z" />
    <glyph glyph-name="dieresis" unicode="&#xa8;" horiz-adv-x="899" 
d="M150 1649v-200h212v200h-212zM538 1650v-200h211v200h-211zM412 1699v-300h-312v300h312zM799 1700v-300h-311v300h311z" />
    <glyph glyph-name="copyright" unicode="&#xa9;" horiz-adv-x="1663" 
d="M497 1355.5q-163 -89.5 -255 -256t-92 -347.5t90.5 -347.5t252 -257t338.5 -90.5t339 91t252.5 257t90.5 347t-91.5 347.5t-255 256t-335.5 89.5q-171 0 -334 -89.5zM831 1383q-155 0 -303.5 -81.5t-232 -233.5t-83.5 -316q0 -165 82 -315t229.5 -234t307.5 -84t308 84
t230.5 234t82.5 315q0 164 -84 316t-232 233.5t-305 81.5zM1158 1189q-7 -19 -24.5 -33t-42.5 -14q-16 0 -43 10q-78 26 -105.5 31.5t-72.5 5.5q-206 0 -338 -130t-132 -314q0 -177 123.5 -301t313.5 -124q228 0 344 171l7 -3q-112 -157 -318 -157q-159 0 -257 109.5
t-98 334.5q0 82 21 158t54 124q44 62 113 99.5t158 37.5q118 0 202 -64.5t118 -174.5h-7l-17 234h1zM831 1495q185 0 360 -96t273.5 -274.5t98.5 -372.5t-97 -372t-271 -275.5t-364 -97.5t-363.5 97.5t-270.5 275.5t-97 372t98.5 372.5t274 274.5t358.5 96zM1161 1344.5
q160 -88.5 250.5 -252t90.5 -340.5q0 -178 -89 -340t-248.5 -252.5t-333.5 -90.5q-173 0 -332.5 90.5t-248 252.5t-88.5 340q0 177 90.5 340.5t250.5 252t328 88.5q170 0 330 -88.5zM1203 1239l25 -334h-84q-40 131 -111 185t-172 54q-76 0 -134.5 -31.5t-95.5 -84.5
q-28 -40 -47 -109t-19 -144q0 -206 84 -300t221 -94q181 0 302 171l81 -42q-161 -240 -416 -240q-210 0 -348.5 138.5t-138.5 336.5q0 205 147 349.5t373 144.5q50 0 81.5 -6.5t112.5 -32.5q20 -8 27 -8t12.5 4.5t20.5 42.5h79z" />
    <glyph glyph-name="ordfeminine" unicode="&#xaa;" horiz-adv-x="717" 
d="M495 744h72v644h-417v-644h81v291h264v-291zM281 1269v-121h164v121h-164zM445 985h-164v-291h-181v744h517v-744h-172v291zM495 1319v-221h-264v221h264z" />
    <glyph glyph-name="guillemotleft" unicode="&#xab;" horiz-adv-x="829" 
d="M336 630l-120 139l118 125v189l-184 -169v-268l186 -166v150zM386 368l-286 256v312l284 261v-323l-100 -106l102 -119v-281zM679 630l-120 139l118 125v189l-184 -169v-268l186 -166v150zM729 368l-286 256v312l284 261v-323l-100 -106l102 -119v-281z" />
    <glyph glyph-name="logicalnot" unicode="&#xac;" horiz-adv-x="924" 
d="M659 346h115l-1 461h-623v-176h509v-285zM609 581h-509v276h723l1 -561h-215v285z" />
    <glyph glyph-name="registered" unicode="&#xae;" horiz-adv-x="1594" 
d="M479 1255q-155 -85 -242 -244t-87 -330q0 -173 85.5 -330t239 -244t320.5 -87q170 0 324 87t239.5 244t85.5 330q0 171 -87.5 330t-242 244t-319.5 85q-161 0 -316 -85zM795 1283q-146 0 -288 -78.5t-220.5 -223t-78.5 -300.5q0 -157 78 -300t218 -222t291 -79
q154 0 294.5 79t218 222t77.5 300q0 156 -79 300.5t-220 223t-291 78.5zM450 1092q24 0 49 -16.5t34 -47.5q4 -17 4 -93v-504q0 -78 -8 -99q-11 -30 -37.5 -44.5t-53.5 -14.5v17h299v-17q-47 0 -76 19t-37 64v325h110l279 -391h136v-15q-15 2 -38 17q-33 20 -72 77l-218 317
q140 37 182.5 86.5t42.5 112.5q0 79 -64 135.5t-192 56.5h-340v15zM674 724q83 0 128.5 19.5t68.5 54t23 77.5q0 66 -46.5 112.5t-117.5 46.5q-34 0 -56 -7v-303zM795 1390q178 0 344.5 -91.5t260.5 -262.5t94 -355q0 -186 -92 -354.5t-258 -262.5t-349 -94
q-180 0 -345.5 94t-257.5 262.5t-92 354.5q0 183 93.5 354.5t260.5 263t341 91.5zM1111 1248q153 -85 238.5 -241.5t85.5 -325.5t-84 -324t-236.5 -241t-319.5 -86q-164 0 -316 86t-236.5 241t-84.5 324t85 325.5t239 241.5t313 85q163 0 316 -85zM400 1127h390
q147 0 226.5 -70.5t79.5 -171.5q0 -82 -54 -144.5t-140 -84.5l178 -258q33 -49 57 -64q14 -8 62 -14v-80h-212l-279 391h-34v-270q4 -20 17.5 -29t95.5 -9v-83h-399v83q64 0 76.5 6.5t17.5 20.5q5 12 5 81v504q0 70 -2 80q-4 12 -15 19.5t-70 7.5v85zM624 1063q64 21 106 21
q92 0 153 -61t61 -148q0 -58 -31.5 -105t-88.5 -71.5t-200 -24.5v389z" />
    <glyph glyph-name="macron" unicode="&#xaf;" horiz-adv-x="744" 
d="M150 1490h444v176h-444v-176zM100 1716h544v-276h-544v276z" />
    <glyph glyph-name="degree" unicode="&#xb0;" horiz-adv-x="717" 
d="M150 1388v-644h417v644h-417zM445 1269h-164v-406h164v406zM617 1438v-744h-517v744h517zM495 813h-264v506h264v-506z" />
    <glyph glyph-name="plusminus" unicode="&#xb1;" horiz-adv-x="923" 
d="M773 631v176h-215v215h-172v-215h-236v-176h236v-246h172v246h215zM608 581v-246h-272v246h-236v276h236v215h272v-215h215v-276h-215zM150 30h623v176h-623v-176zM100 256h723v-276h-723v276z" />
    <glyph glyph-name="uni00B2" unicode="&#xb2;" horiz-adv-x="717" 
d="M231 813v222h336v353h-417v-69h345v-221h-345v-354h417v69h-336zM617 863v-169h-517v454h345v121h-345v169h517v-453h-336v-122h336z" />
    <glyph glyph-name="uni00B3" unicode="&#xb3;" horiz-adv-x="717" 
d="M495 1319v-221h-345v-63h345v-222h-345v-69h417v644h-417v-69h345zM100 1269v169h517v-744h-517v169h345v122h-345v163h345v121h-345z" />
    <glyph glyph-name="acute" unicode="&#xb4;" horiz-adv-x="519" 
d="M252 1627l-73 -154h87l74 154h-88zM419 1677l-122 -254h-197l120 254h199z" />
    <glyph glyph-name="mu" unicode="&#xb5;" horiz-adv-x="1187" 
d="M340 50h697v891h-212v-703h-478v703h-195l-2 -1211h190v320zM390 -320h-290l2 1311h295v-703h378v703h312v-991h-697v-320z" />
    <glyph glyph-name="paragraph" unicode="&#xb6;" horiz-adv-x="1111" 
d="M961 1334v49q-522 16 -587 -18.5t-136 -150.5t-79 -275t80.5 -306t412.5 -147v-593h69v599h124v-599h54v1441h62zM949 1284v-1441h-154v599h-24v-599h-169v593q-302 0 -402 166t-91 338.5t86.5 300t155 168.5t660.5 22v-147h-62z" />
    <glyph glyph-name="periodcentered" unicode="&#xb7;" horiz-adv-x="512" 
d="M150 900v-200h212v200h-212zM412 950v-300h-312v300h312z" />
    <glyph glyph-name="periodcentered" unicode="&#x2219;" horiz-adv-x="512" 
d="M150 900v-200h212v200h-212zM412 950v-300h-312v300h312z" />
    <glyph glyph-name="cedilla" unicode="&#xb8;" horiz-adv-x="468" 
d="M150 -221v-31q46 0 88.5 12t53.5 64t-90 129l46 47h-14l-56 -60v-29q70 0 70 -38.5t-17 -73.5t-81 -20zM192 -166.5q6 11.5 6 19.5t-70 8v98l84 91h156l-91 -92q81 -62 64 -144t-77.5 -99t-163.5 -17v144q86 -20 92 -8.5z" />
    <glyph glyph-name="uni00B9" unicode="&#xb9;" horiz-adv-x="381" 
d="M231 1388h-81v-644h81v644zM281 694h-181v744h181v-744z" />
    <glyph glyph-name="ordmasculine" unicode="&#xba;" horiz-adv-x="717" 
d="M150 1388v-644h417v644h-417zM445 1269h-164v-406h164v406zM617 1438v-744h-517v744h517zM495 813h-264v506h264v-506z" />
    <glyph glyph-name="guillemotright" unicode="&#xbb;" horiz-adv-x="829" 
d="M493 480l186 166v268l-184 169v-189l118 -125l-120 -139v-150zM443 649l102 119l-100 106v323l284 -261v-312l-286 -256v281zM150 480l186 166v268l-184 169v-189l118 -125l-120 -139v-150zM100 649l102 119l-100 106v323l284 -261v-312l-286 -256v281z" />
    <glyph glyph-name="onequarter" unicode="&#xbc;" horiz-adv-x="1473" 
d="M1251 1388h-202l-858 -1338h203zM434 1388h-80v-644h80v644zM1250 338v-291h73v644h-73v-290h-264v290h-81v-353h345zM421 0h-321l921 1438h321zM484 694h-180v744h180v-744zM855 288v453h181v-290h164v290h173v-744h-173v291h-345z" />
    <glyph glyph-name="onehalf" unicode="&#xbd;" horiz-adv-x="1541" 
d="M1251 1388h-202l-858 -1338h203zM434 1388h-80v-644h80v644zM1054 122v222h337v353h-417v-69h345v-221h-345v-354h417v69h-337zM421 0h-321l921 1438h321zM484 694h-180v744h180v-744zM1441 172v-169h-517v454h345v121h-345v169h517v-453h-337v-122h337z" />
    <glyph glyph-name="threequarters" unicode="&#xbe;" horiz-adv-x="1509" 
d="M1287 1388h-202l-857 -1338h202zM1287 338v-291h72v644h-72v-290h-265v290h-80v-353h345zM495 1319v-221h-345v-63h345v-222h-345v-69h417v644h-417v-69h345zM457 0h-321l921 1438h321zM892 288v453h180v-290h165v290h172v-744h-172v291h-345zM100 1269v169h517v-744
h-517v169h345v122h-345v163h345v121h-345z" />
    <glyph glyph-name="questiondown" unicode="&#xbf;" 
d="M823 1027v-220h-673v-757h885v188h-689v393h689v396h-212zM1035 1189v199h-212v-199h212zM1085 1077v-496h-689v-293h689v-288h-985v857h673v220h312zM773 1139v299h312v-299h-312z" />
    <glyph glyph-name="Agrave" unicode="&#xc0;" 
d="M839 50h196v1338h-885v-1338h212v581h477v-581zM412 1150v-293h377v293h-377zM789 581h-377v-581h-312v1438h985v-1438h-296v581zM839 1200v-393h-477v393h477zM513 1627l74 -154h87l-73 154h-88zM633 1677l120 -254h-197l-122 254h199z" />
    <glyph glyph-name="Aacute" unicode="&#xc1;" 
d="M839 50h196v1338h-885v-1338h212v581h477v-581zM412 1150v-293h377v293h-377zM789 581h-377v-581h-312v1438h985v-1438h-296v581zM839 1200v-393h-477v393h477zM640 1627l-73 -154h87l74 154h-88zM807 1677l-122 -254h-197l120 254h199z" />
    <glyph glyph-name="Acircumflex" unicode="&#xc2;" 
d="M839 50h196v1338h-885v-1338h212v581h477v-581zM412 1150v-293h377v293h-377zM789 581h-377v-581h-312v1438h985v-1438h-296v581zM839 1200v-393h-477v393h477zM673 1474h87l-73 154h-102v-1h-72l-73 -154h87l74 152zM600 1510l-42 -87h-197l120 254h54v1h184l120 -254
h-197z" />
    <glyph glyph-name="Atilde" unicode="&#xc3;" 
d="M839 50h196v1338h-885v-1338h212v581h477v-581zM412 1150v-293h377v293h-377zM789 581h-377v-581h-312v1438h985v-1438h-296v581zM839 1200v-393h-477v393h477zM372 1554l36 -71q70 83 191 4.5t236 62.5l-45 58q-99 -97 -192.5 -25.5t-225.5 -28.5zM595.5 1647
q91.5 -70 200.5 35l103 -133q-169 -206 -290 -127.5t-211 -28.5l-89 175q195 149 286.5 79z" />
    <glyph glyph-name="Adieresis" unicode="&#xc4;" 
d="M839 50h196v1338h-885v-1338h212v581h477v-581zM412 1150v-293h377v293h-377zM789 581h-377v-581h-312v1438h985v-1438h-296v581zM839 1200v-393h-477v393h477zM312 1649v-200h212v200h-212zM700 1650v-200h211v200h-211zM574 1699v-300h-312v300h312zM961 1700v-300
h-311v300h311z" />
    <glyph glyph-name="Aring" unicode="&#xc5;" 
d="M839 50h196v1338h-885v-1338h212v581h477v-581zM412 1150v-293h377v293h-377zM789 581h-377v-581h-312v1438h985v-1438h-296v581zM839 1200v-393h-477v393h477zM585 1638q-38 0 -65 -27.5t-27 -67.5q0 -39 27 -66.5t65 -27.5q37 0 64 27.5t27 66.5q0 40 -27 67.5
t-64 27.5zM585 1574q-12 0 -20.5 -9t-8.5 -22q0 -12 8.5 -21t20.5 -9t20.5 9t8.5 21q0 14 -8.5 22.5t-20.5 8.5zM685 1645.5q41 -42.5 41 -102.5q0 -59 -41.5 -101.5t-99.5 -42.5q-59 0 -100.5 42.5t-41.5 101.5q0 60 41.5 102.5t100.5 42.5t100 -42.5zM641 1600.5
q23 -23.5 23 -57.5q0 -32 -23 -56t-56 -24t-56 24t-23 56q0 34 23 57.5t56 23.5t56 -23.5z" />
    <glyph glyph-name="AE" unicode="&#xc6;" horiz-adv-x="1868" 
d="M834 50h884v188h-673v393h673v176h-673v393h673v188h-1568v-1338h212v581h472v-581zM784 857v293h-372v-293h372zM784 581h-372v-581h-312v1438h1668v-288h-673v-293h673v-276h-673v-293h673v-288h-984v581zM362 807v393h472v-393h-472z" />
    <glyph glyph-name="Ccedilla" unicode="&#xc7;" 
d="M362 1200h673v188h-885v-1338h885v188h-673v962zM412 288h673v-288h-985v1438h985v-288h-673v-862zM529 -221v-31q46 0 88.5 12t53.5 64t-90 129l46 47h-14l-56 -60v-29q70 0 70 -38.5t-17 -73.5t-81 -20zM571 -166.5q6 11.5 6 19.5t-70 8v98l84 91h156l-91 -92
q81 -62 64 -144t-77.5 -99t-163.5 -17v144q86 -20 92 -8.5z" />
    <glyph glyph-name="Egrave" unicode="&#xc8;" 
d="M1035 1200v188h-885v-1338h885v188h-673v393h673v176h-673v393h673zM412 1150v-293h673v-276h-673v-293h673v-288h-985v1438h985v-288h-673zM531 1627l74 -154h87l-73 154h-88zM651 1677l120 -254h-197l-122 254h199z" />
    <glyph glyph-name="Eacute" unicode="&#xc9;" 
d="M1035 1200v188h-885v-1338h885v188h-673v393h673v176h-673v393h673zM412 1150v-293h673v-276h-673v-293h673v-288h-985v1438h985v-288h-673zM640 1627l-73 -154h87l74 154h-88zM807 1677l-122 -254h-197l120 254h199z" />
    <glyph glyph-name="Ecircumflex" unicode="&#xca;" 
d="M1035 1200v188h-885v-1338h885v188h-673v393h673v176h-673v393h673zM412 1150v-293h673v-276h-673v-293h673v-288h-985v1438h985v-288h-673zM685 1474h87l-73 154h-102v-1h-72l-73 -154h87l74 152zM612 1510l-42 -87h-197l120 254h54v1h184l120 -254h-197z" />
    <glyph glyph-name="Edieresis" unicode="&#xcb;" 
d="M1035 1200v188h-885v-1338h885v188h-673v393h673v176h-673v393h673zM412 1150v-293h673v-276h-673v-293h673v-288h-985v1438h985v-288h-673zM306 1649v-200h212v200h-212zM694 1650v-200h211v200h-211zM568 1699v-300h-312v300h312zM955 1700v-300h-311v300h311z" />
    <glyph glyph-name="Igrave" unicode="&#xcc;" horiz-adv-x="526" 
d="M377 1388h-212v-1338h212v1338zM427 0h-312v1438h312v-1438zM179 1627l74 -154h87l-73 154h-88zM299 1677l120 -254h-197l-122 254h199z" />
    <glyph glyph-name="Iacute" unicode="&#xcd;" horiz-adv-x="535" 
d="M362 1388h-212v-1338h212v1338zM412 0h-312v1438h312v-1438zM267 1627l-73 -154h87l74 154h-88zM434 1677l-122 -254h-197l120 254h199z" />
    <glyph glyph-name="Icircumflex" unicode="&#xce;" horiz-adv-x="678" 
d="M443 1388h-212v-1338h212v1338zM493 0h-312v1438h312v-1438zM412 1474h87l-73 154h-102v-1h-72l-73 -154h87l74 152zM339 1510l-42 -87h-197l120 254h54v1h184l120 -254h-197z" />
    <glyph glyph-name="Idieresis" unicode="&#xcf;" horiz-adv-x="899" 
d="M560 1388h-212v-1338h212v1338zM610 0h-312v1438h312v-1438zM150 1649v-200h212v200h-212zM538 1650v-200h211v200h-211zM412 1699v-300h-312v300h312zM799 1700v-300h-311v300h311z" />
    <glyph glyph-name="Eth" unicode="&#xd0;" horiz-adv-x="1310" 
d="M537 581v-293h377v862h-377v-293h124v-276h-124zM150 807v-176h125v-581h800l85 106v1126l-86 106h-799v-581h-125zM611 631v176h-124v393h477v-962h-477v393h124zM225 857v581h873l112 -138v-1162l-111 -138h-874v581h-125v276h125z" />
    <glyph glyph-name="Ntilde" unicode="&#xd1;" 
d="M362 926l467 -876h206v1338h-196v-851l-467 851h-222v-1338h212v876zM412 0h-312v1438h301l388 -706v706h296v-1438h-286l-387 726v-726zM390 1554l36 -71q70 83 191 4.5t236 62.5l-45 58q-99 -97 -192.5 -25.5t-225.5 -28.5zM613.5 1647q91.5 -70 200.5 35l103 -133
q-169 -206 -290 -127.5t-211 -28.5l-89 175q195 149 286.5 79z" />
    <glyph glyph-name="Ograve" unicode="&#xd2;" 
d="M150 1388v-1338h885v1338h-885zM789 1150h-377v-862h377v862zM1085 1438v-1438h-985v1438h985zM839 238h-477v962h477v-962zM483 1627l74 -154h87l-73 154h-88zM603 1677l120 -254h-197l-122 254h199z" />
    <glyph glyph-name="Oacute" unicode="&#xd3;" 
d="M150 1388v-1338h885v1338h-885zM789 1150h-377v-862h377v862zM1085 1438v-1438h-985v1438h985zM839 238h-477v962h477v-962zM628 1627l-73 -154h87l74 154h-88zM795 1677l-122 -254h-197l120 254h199z" />
    <glyph glyph-name="Ocircumflex" unicode="&#xd4;" 
d="M150 1388v-1338h885v1338h-885zM789 1150h-377v-862h377v862zM1085 1438v-1438h-985v1438h985zM839 238h-477v962h477v-962zM679 1474h87l-73 154h-102v-1h-72l-73 -154h87l74 152zM606 1510l-42 -87h-197l120 254h54v1h184l120 -254h-197z" />
    <glyph glyph-name="Otilde" unicode="&#xd5;" 
d="M150 1388v-1338h885v1338h-885zM789 1150h-377v-862h377v862zM1085 1438v-1438h-985v1438h985zM839 238h-477v962h477v-962zM360 1554l36 -71q70 83 191 4.5t236 62.5l-45 58q-99 -97 -192.5 -25.5t-225.5 -28.5zM583.5 1647q91.5 -70 200.5 35l103 -133
q-169 -206 -290 -127.5t-211 -28.5l-89 175q195 149 286.5 79z" />
    <glyph glyph-name="Odieresis" unicode="&#xd6;" 
d="M150 1388v-1338h885v1338h-885zM789 1150h-377v-862h377v862zM1085 1438v-1438h-985v1438h985zM839 238h-477v962h477v-962zM294 1649v-200h212v200h-212zM682 1650v-200h211v200h-211zM556 1699v-300h-312v300h312zM943 1700v-300h-311v300h311z" />
    <glyph glyph-name="multiply" unicode="&#xd7;" horiz-adv-x="921" 
d="M732 990l-121 124l-152 -155l-149 151l-122 -123l149 -152l-167 -171l121 -124l168 170l170 -174l122 125l-170 174zM651 835l170 -174l-192 -196l-170 174l-168 -170l-191 195l167 171l-149 152l192 195l149 -152l152 156l191 -196z" />
    <glyph glyph-name="Oslash" unicode="&#xd8;" horiz-adv-x="1344" 
d="M635 288h236v511zM494 668l222 482h-222v-482zM1165 1556h-206l-78 -168h-649v-1338h31l-85 -186h207l85 186h647v1338h-29zM921 1027v-789h-364zM444 1200h350l-350 -759v759zM1166 1438h1v-1438h-665l-85 -186h-317l85 186h-3v1438h667l78 168h317z" />
    <glyph glyph-name="Ugrave" unicode="&#xd9;" 
d="M513 1627l74 -154h87l-73 154h-88zM633 1677l120 -254h-197l-122 254h199zM839 238h-477v1150h-212v-1338h885v1338h-196v-1150zM789 1438h296v-1438h-985v1438h312v-1150h377v1150z" />
    <glyph glyph-name="Uacute" unicode="&#xda;" 
d="M839 238h-477v1150h-212v-1338h885v1338h-196v-1150zM789 1438h296v-1438h-985v1438h312v-1150h377v1150zM634 1627l-73 -154h87l74 154h-88zM801 1677l-122 -254h-197l120 254h199z" />
    <glyph glyph-name="Ucircumflex" unicode="&#xdb;" 
d="M839 238h-477v1150h-212v-1338h885v1338h-196v-1150zM789 1438h296v-1438h-985v1438h312v-1150h377v1150zM679 1474h87l-73 154h-102v-1h-72l-73 -154h87l74 152zM606 1510l-42 -87h-197l120 254h54v1h184l120 -254h-197z" />
    <glyph glyph-name="Udieresis" unicode="&#xdc;" 
d="M839 238h-477v1150h-212v-1338h885v1338h-196v-1150zM789 1438h296v-1438h-985v1438h312v-1150h377v1150zM288 1649v-200h212v200h-212zM676 1650v-200h211v200h-211zM550 1699v-300h-312v300h312zM937 1700v-300h-311v300h311z" />
    <glyph glyph-name="Yacute" unicode="&#xdd;" horiz-adv-x="1215" 
d="M1034 1388h-190l-232 -473l-227 473h-206l315 -663v-675h212v675zM756 713v-713h-312v713l-344 725h317l196 -409l200 409h302zM637 1627l-73 -154h87l74 154h-88zM804 1677l-122 -254h-197l120 254h199z" />
    <glyph glyph-name="Thorn" unicode="&#xde;" 
d="M362 1388h-212v-1338h214v188h-2v120h673v757h-673v273zM412 584h377v294h-377v-294zM412 1165h673v-857h-673v-20h2v-288h-314v1438h312v-273zM362 928h477v-394h-477v394z" />
    <glyph glyph-name="germandbls" unicode="&#xdf;" horiz-adv-x="2370" 
d="M2024 631v-393h-689v-188h885v757h-673v393h673v188h-885v-757h689zM1285 581v857h985v-288h-673v-293h673v-857h-985v288h689v293h-689zM839 631v-393h-689v-188h885v757h-673v393h673v188h-885v-757h689zM100 581v857h985v-288h-673v-293h673v-857h-985v288h689v293
h-689z" />
    <glyph glyph-name="agrave" unicode="&#xe0;" 
d="M839 50h196v1338h-885v-1338h212v581h477v-581zM412 1150v-293h377v293h-377zM789 581h-377v-581h-312v1438h985v-1438h-296v581zM839 1200v-393h-477v393h477zM513 1627l74 -154h87l-73 154h-88zM633 1677l120 -254h-197l-122 254h199z" />
    <glyph glyph-name="aacute" unicode="&#xe1;" 
d="M839 50h196v1338h-885v-1338h212v581h477v-581zM412 1150v-293h377v293h-377zM789 581h-377v-581h-312v1438h985v-1438h-296v581zM839 1200v-393h-477v393h477zM640 1627l-73 -154h87l74 154h-88zM807 1677l-122 -254h-197l120 254h199z" />
    <glyph glyph-name="acircumflex" unicode="&#xe2;" 
d="M839 50h196v1338h-885v-1338h212v581h477v-581zM412 1150v-293h377v293h-377zM789 581h-377v-581h-312v1438h985v-1438h-296v581zM839 1200v-393h-477v393h477zM673 1474h87l-73 154h-102v-1h-72l-73 -154h87l74 152zM600 1510l-42 -87h-197l120 254h54v1h184l120 -254
h-197z" />
    <glyph glyph-name="atilde" unicode="&#xe3;" 
d="M839 50h196v1338h-885v-1338h212v581h477v-581zM412 1150v-293h377v293h-377zM789 581h-377v-581h-312v1438h985v-1438h-296v581zM839 1200v-393h-477v393h477zM372 1554l36 -71q70 83 191 4.5t236 62.5l-45 58q-99 -97 -192.5 -25.5t-225.5 -28.5zM595.5 1647
q91.5 -70 200.5 35l103 -133q-169 -206 -290 -127.5t-211 -28.5l-89 175q195 149 286.5 79z" />
    <glyph glyph-name="adieresis" unicode="&#xe4;" 
d="M839 50h196v1338h-885v-1338h212v581h477v-581zM412 1150v-293h377v293h-377zM789 581h-377v-581h-312v1438h985v-1438h-296v581zM839 1200v-393h-477v393h477zM312 1649v-200h212v200h-212zM700 1650v-200h211v200h-211zM574 1699v-300h-312v300h312zM961 1700v-300
h-311v300h311z" />
    <glyph glyph-name="aring" unicode="&#xe5;" 
d="M839 50h196v1338h-885v-1338h212v581h477v-581zM412 1150v-293h377v293h-377zM789 581h-377v-581h-312v1438h985v-1438h-296v581zM839 1200v-393h-477v393h477zM585 1638q-38 0 -65 -27.5t-27 -67.5q0 -39 27 -66.5t65 -27.5q37 0 64 27.5t27 66.5q0 40 -27 67.5
t-64 27.5zM585 1574q-12 0 -20.5 -9t-8.5 -22q0 -12 8.5 -21t20.5 -9t20.5 9t8.5 21q0 14 -8.5 22.5t-20.5 8.5zM685 1645.5q41 -42.5 41 -102.5q0 -59 -41.5 -101.5t-99.5 -42.5q-59 0 -100.5 42.5t-41.5 101.5q0 60 41.5 102.5t100.5 42.5t100 -42.5zM641 1600.5
q23 -23.5 23 -57.5q0 -32 -23 -56t-56 -24t-56 24t-23 56q0 34 23 57.5t56 23.5t56 -23.5z" />
    <glyph glyph-name="ae" unicode="&#xe6;" horiz-adv-x="1868" 
d="M834 50h884v188h-673v393h673v176h-673v393h673v188h-1568v-1338h212v581h472v-581zM784 857v293h-372v-293h372zM784 581h-372v-581h-312v1438h1668v-288h-673v-293h673v-276h-673v-293h673v-288h-984v581zM362 807v393h472v-393h-472z" />
    <glyph glyph-name="ccedilla" unicode="&#xe7;" 
d="M362 1200h673v188h-885v-1338h885v188h-673v962zM412 288h673v-288h-985v1438h985v-288h-673v-862zM529 -221v-31q46 0 88.5 12t53.5 64t-90 129l46 47h-14l-56 -60v-29q70 0 70 -38.5t-17 -73.5t-81 -20zM571 -166.5q6 11.5 6 19.5t-70 8v98l84 91h156l-91 -92
q81 -62 64 -144t-77.5 -99t-163.5 -17v144q86 -20 92 -8.5z" />
    <glyph glyph-name="egrave" unicode="&#xe8;" 
d="M1035 1200v188h-885v-1338h885v188h-673v393h673v176h-673v393h673zM412 1150v-293h673v-276h-673v-293h673v-288h-985v1438h985v-288h-673zM531 1627l74 -154h87l-73 154h-88zM651 1677l120 -254h-197l-122 254h199z" />
    <glyph glyph-name="eacute" unicode="&#xe9;" 
d="M1035 1200v188h-885v-1338h885v188h-673v393h673v176h-673v393h673zM412 1150v-293h673v-276h-673v-293h673v-288h-985v1438h985v-288h-673zM640 1627l-73 -154h87l74 154h-88zM807 1677l-122 -254h-197l120 254h199z" />
    <glyph glyph-name="ecircumflex" unicode="&#xea;" 
d="M1035 1200v188h-885v-1338h885v188h-673v393h673v176h-673v393h673zM412 1150v-293h673v-276h-673v-293h673v-288h-985v1438h985v-288h-673zM685 1474h87l-73 154h-102v-1h-72l-73 -154h87l74 152zM612 1510l-42 -87h-197l120 254h54v1h184l120 -254h-197z" />
    <glyph glyph-name="edieresis" unicode="&#xeb;" 
d="M1035 1200v188h-885v-1338h885v188h-673v393h673v176h-673v393h673zM412 1150v-293h673v-276h-673v-293h673v-288h-985v1438h985v-288h-673zM306 1649v-200h212v200h-212zM694 1650v-200h211v200h-211zM568 1699v-300h-312v300h312zM955 1700v-300h-311v300h311z" />
    <glyph glyph-name="igrave" unicode="&#xec;" horiz-adv-x="526" 
d="M377 1388h-212v-1338h212v1338zM427 0h-312v1438h312v-1438zM179 1627l74 -154h87l-73 154h-88zM299 1677l120 -254h-197l-122 254h199z" />
    <glyph glyph-name="iacute" unicode="&#xed;" horiz-adv-x="535" 
d="M362 1388h-212v-1338h212v1338zM412 0h-312v1438h312v-1438zM267 1627l-73 -154h87l74 154h-88zM434 1677l-122 -254h-197l120 254h199z" />
    <glyph glyph-name="icircumflex" unicode="&#xee;" horiz-adv-x="678" 
d="M443 1388h-212v-1338h212v1338zM493 0h-312v1438h312v-1438zM412 1474h87l-73 154h-102v-1h-72l-73 -154h87l74 152zM339 1510l-42 -87h-197l120 254h54v1h184l120 -254h-197z" />
    <glyph glyph-name="idieresis" unicode="&#xef;" horiz-adv-x="899" 
d="M560 1388h-212v-1338h212v1338zM610 0h-312v1438h312v-1438zM150 1649v-200h212v200h-212zM538 1650v-200h211v200h-211zM412 1699v-300h-312v300h312zM799 1700v-300h-311v300h311z" />
    <glyph glyph-name="eth" unicode="&#xf0;" horiz-adv-x="1310" 
d="M537 581v-293h377v862h-377v-293h124v-276h-124zM150 807v-176h125v-581h800l85 106v1126l-86 106h-799v-581h-125zM611 631v176h-124v393h477v-962h-477v393h124zM225 857v581h873l112 -138v-1162l-111 -138h-874v581h-125v276h125z" />
    <glyph glyph-name="ntilde" unicode="&#xf1;" 
d="M362 926l467 -876h206v1338h-196v-851l-467 851h-222v-1338h212v876zM412 0h-312v1438h301l388 -706v706h296v-1438h-286l-387 726v-726zM390 1554l36 -71q70 83 191 4.5t236 62.5l-45 58q-99 -97 -192.5 -25.5t-225.5 -28.5zM613.5 1647q91.5 -70 200.5 35l103 -133
q-169 -206 -290 -127.5t-211 -28.5l-89 175q195 149 286.5 79z" />
    <glyph glyph-name="ograve" unicode="&#xf2;" 
d="M150 1388v-1338h885v1338h-885zM789 1150h-377v-862h377v862zM1085 1438v-1438h-985v1438h985zM839 238h-477v962h477v-962zM483 1627l74 -154h87l-73 154h-88zM603 1677l120 -254h-197l-122 254h199z" />
    <glyph glyph-name="oacute" unicode="&#xf3;" 
d="M150 1388v-1338h885v1338h-885zM789 1150h-377v-862h377v862zM1085 1438v-1438h-985v1438h985zM839 238h-477v962h477v-962zM628 1627l-73 -154h87l74 154h-88zM795 1677l-122 -254h-197l120 254h199z" />
    <glyph glyph-name="ocircumflex" unicode="&#xf4;" 
d="M150 1388v-1338h885v1338h-885zM789 1150h-377v-862h377v862zM1085 1438v-1438h-985v1438h985zM839 238h-477v962h477v-962zM679 1474h87l-73 154h-102v-1h-72l-73 -154h87l74 152zM606 1510l-42 -87h-197l120 254h54v1h184l120 -254h-197z" />
    <glyph glyph-name="otilde" unicode="&#xf5;" 
d="M150 1388v-1338h885v1338h-885zM789 1150h-377v-862h377v862zM1085 1438v-1438h-985v1438h985zM839 238h-477v962h477v-962zM360 1554l36 -71q70 83 191 4.5t236 62.5l-45 58q-99 -97 -192.5 -25.5t-225.5 -28.5zM583.5 1647q91.5 -70 200.5 35l103 -133
q-169 -206 -290 -127.5t-211 -28.5l-89 175q195 149 286.5 79z" />
    <glyph glyph-name="odieresis" unicode="&#xf6;" 
d="M150 1388v-1338h885v1338h-885zM789 1150h-377v-862h377v862zM1085 1438v-1438h-985v1438h985zM839 238h-477v962h477v-962zM294 1649v-200h212v200h-212zM682 1650v-200h211v200h-211zM556 1699v-300h-312v300h312zM943 1700v-300h-311v300h311z" />
    <glyph glyph-name="divide" unicode="&#xf7;" horiz-adv-x="923" 
d="M150 631h623v176h-623v-176zM361 1139v-200h212v200h-212zM361 488v-199h212v199h-212zM100 857h723v-276h-723v276zM623 1189v-300h-312v300h312zM623 538v-299h-312v299h312z" />
    <glyph glyph-name="oslash" unicode="&#xf8;" horiz-adv-x="1344" 
d="M635 288h236v511zM494 668l222 482h-222v-482zM1165 1556h-206l-78 -168h-649v-1338h31l-85 -186h207l85 186h647v1338h-29zM921 1027v-789h-364zM444 1200h350l-350 -759v759zM1166 1438h1v-1438h-665l-85 -186h-317l85 186h-3v1438h667l78 168h317z" />
    <glyph glyph-name="ugrave" unicode="&#xf9;" 
d="M513 1627l74 -154h87l-73 154h-88zM633 1677l120 -254h-197l-122 254h199zM839 238h-477v1150h-212v-1338h885v1338h-196v-1150zM789 1438h296v-1438h-985v1438h312v-1150h377v1150z" />
    <glyph glyph-name="uacute" unicode="&#xfa;" 
d="M839 238h-477v1150h-212v-1338h885v1338h-196v-1150zM789 1438h296v-1438h-985v1438h312v-1150h377v1150zM634 1627l-73 -154h87l74 154h-88zM801 1677l-122 -254h-197l120 254h199z" />
    <glyph glyph-name="ucircumflex" unicode="&#xfb;" 
d="M839 238h-477v1150h-212v-1338h885v1338h-196v-1150zM789 1438h296v-1438h-985v1438h312v-1150h377v1150zM679 1474h87l-73 154h-102v-1h-72l-73 -154h87l74 152zM606 1510l-42 -87h-197l120 254h54v1h184l120 -254h-197z" />
    <glyph glyph-name="udieresis" unicode="&#xfc;" 
d="M839 238h-477v1150h-212v-1338h885v1338h-196v-1150zM789 1438h296v-1438h-985v1438h312v-1150h377v1150zM288 1649v-200h212v200h-212zM676 1650v-200h211v200h-211zM550 1699v-300h-312v300h312zM937 1700v-300h-311v300h311z" />
    <glyph glyph-name="yacute" unicode="&#xfd;" horiz-adv-x="1215" 
d="M1034 1388h-190l-232 -473l-227 473h-206l315 -663v-675h212v675zM756 713v-713h-312v713l-344 725h317l196 -409l200 409h302zM637 1627l-73 -154h87l74 154h-88zM804 1677l-122 -254h-197l120 254h199z" />
    <glyph glyph-name="thorn" unicode="&#xfe;" 
d="M362 1388h-212v-1338h214v188h-2v120h673v757h-673v273zM412 584h377v294h-377v-294zM412 1165h673v-857h-673v-20h2v-288h-314v1438h312v-273zM362 928h477v-394h-477v394z" />
    <glyph glyph-name="ydieresis" unicode="&#xff;" horiz-adv-x="1215" 
d="M1034 1388h-190l-232 -473l-227 473h-206l315 -663v-675h212v675zM756 713v-713h-312v713l-344 725h317l196 -409l200 409h302zM309 1649v-200h212v200h-212zM697 1650v-200h211v200h-211zM571 1699v-300h-312v300h312zM958 1700v-300h-311v300h311z" />
    <glyph glyph-name="dotlessi" unicode="&#x131;" horiz-adv-x="512" 
d="M362 1388h-212v-1338h212v1338zM412 0h-312v1438h312v-1438z" />
    <glyph glyph-name="circumflex" unicode="&#x2c6;" horiz-adv-x="678" 
d="M412 1474h87l-73 154h-102v-1h-72l-73 -154h87l74 152zM339 1510l-42 -87h-197l120 254h54v1h184l120 -254h-197z" />
    <glyph glyph-name="caron" unicode="&#x2c7;" horiz-adv-x="678" 
d="M266 1627h-87l73 -154h102v1h72l73 154h-87l-73 -153zM339 1590l42 88h197l-120 -254h-54v-1h-184l-120 254h197z" />
    <glyph glyph-name="uni02C9" unicode="&#x2c9;" horiz-adv-x="744" 
d="M150 1490h444v176h-444v-176zM100 1716h544v-276h-544v276z" />
    <glyph glyph-name="breve" unicode="&#x2d8;" horiz-adv-x="678" 
d="M265 1627h-86q73 -154 160 -153.5t160 154.5h-84q-68 -210 -150 -1zM378 1678h200q-120 -254 -239 -254.5t-239 253.5h199q43 -111 79 1z" />
    <glyph glyph-name="dotaccent" unicode="&#x2d9;" horiz-adv-x="512" 
d="M150 1649v-200h212v200h-212zM412 1699v-300h-312v300h312z" />
    <glyph glyph-name="ring" unicode="&#x2da;" horiz-adv-x="483" 
d="M242 1638q-38 0 -65 -27.5t-27 -67.5q0 -39 27 -66.5t65 -27.5q37 0 64 27.5t27 66.5q0 40 -27 67.5t-64 27.5zM242 1574q-12 0 -20.5 -9t-8.5 -22q0 -12 8.5 -21t20.5 -9t20.5 9t8.5 21q0 14 -8.5 22.5t-20.5 8.5zM342 1645.5q41 -42.5 41 -102.5q0 -59 -41.5 -101.5
t-99.5 -42.5q-59 0 -100.5 42.5t-41.5 101.5q0 60 41.5 102.5t100.5 42.5t100 -42.5zM298 1600.5q23 -23.5 23 -57.5q0 -32 -23 -56t-56 -24t-56 24t-23 56q0 34 23 57.5t56 23.5t56 -23.5z" />
    <glyph glyph-name="ogonek" unicode="&#x2db;" horiz-adv-x="542" 
d="M263.5 -163.5q69.5 -47.5 128.5 -47.5v65q-95 -6 -118.5 56.5t-26.5 89.5h-83q30 -116 99.5 -163.5zM100 50h191q8 -65 24 -107.5t127 -36.5v-167q-124 0 -208 57t-134 254z" />
    <glyph glyph-name="tilde" unicode="&#x2dc;" horiz-adv-x="790" 
d="M163 1554l36 -71q70 83 191 4.5t236 62.5l-45 58q-99 -97 -192.5 -25.5t-225.5 -28.5zM386.5 1647q91.5 -70 200.5 35l103 -133q-169 -206 -290 -127.5t-211 -28.5l-89 175q195 149 286.5 79z" />
    <glyph glyph-name="hungarumlaut" unicode="&#x2dd;" horiz-adv-x="784" 
d="M252 1627l-73 -154h87l74 154h-88zM419 1677l-122 -254h-197l120 254h199zM517 1627l-73 -154h87l74 154h-88zM684 1677l-122 -254h-197l120 254h199z" />
    <glyph glyph-name="endash" unicode="&#x2013;" horiz-adv-x="1177" 
d="M150 631h877v176h-877v-176zM100 857h977v-276h-977v276z" />
    <glyph glyph-name="emdash" unicode="&#x2014;" horiz-adv-x="1661" 
d="M150 631h1361v176h-1361v-176zM100 857h1461v-276h-1461v276z" />
    <glyph glyph-name="quoteleft" unicode="&#x2018;" horiz-adv-x="518" 
d="M231 1189h131v199h-212v-219l97 -212h93zM418 907h-203l-115 251v280h312v-299h-103z" />
    <glyph glyph-name="quoteright" unicode="&#x2019;" horiz-adv-x="518" 
d="M179 957h92l97 212v219h-211v-199h131zM209 1139h-102v299h311v-280l-115 -251h-203z" />
    <glyph glyph-name="quotesinglbase" unicode="&#x201a;" horiz-adv-x="518" 
d="M179 -182h92l97 212v219h-211v-199h131zM209 0h-102v299h311v-279l-115 -252h-203z" />
    <glyph glyph-name="quotedblleft" unicode="&#x201c;" horiz-adv-x="891" 
d="M231 1189h131v199h-212v-219l97 -212h93zM418 907h-203l-115 251v280h312v-299h-103zM604 1189h131v199h-212v-219l97 -212h93zM791 907h-203l-115 251v280h312v-299h-103z" />
    <glyph glyph-name="quotedblright" unicode="&#x201d;" horiz-adv-x="891" 
d="M179 957h92l97 212v219h-211v-199h131zM209 1139h-102v299h311v-280l-115 -251h-203zM552 957h92l97 212v219h-211v-199h131zM582 1139h-102v299h311v-280l-115 -251h-203z" />
    <glyph glyph-name="quotedblbase" unicode="&#x201e;" horiz-adv-x="891" 
d="M552 -182h92l97 212v219h-211v-199h131zM582 0h-102v299h311v-279l-115 -252h-203zM179 -182h92l97 212v219h-211v-199h131zM209 0h-102v299h311v-279l-115 -252h-203z" />
    <glyph glyph-name="dagger" unicode="&#x2020;" horiz-adv-x="1064" 
d="M503 -101h86v1145h325v90h-325v469h-86v-469h-353v-90h353v-1145zM453 994h-353v190h353v469h186v-469h325v-190h-325v-1145h-186v1145z" />
    <glyph glyph-name="daggerdbl" unicode="&#x2021;" horiz-adv-x="1064" 
d="M503 495h-353v-90h353v-506h86v506h325v90h-325v549h325v90h-325v469h-86v-469h-353v-90h353v-549zM453 994h-353v190h353v469h186v-469h325v-190h-325v-449h325v-190h-325v-506h-186v506h-353v190h353v449z" />
    <glyph glyph-name="bullet" unicode="&#x2022;" horiz-adv-x="712" 
d="M355 940q-84 0 -144.5 -61t-60.5 -148q0 -88 60.5 -149t144.5 -61q86 0 146.5 61t60.5 149q0 87 -60.5 148t-146.5 61zM537 914q75 -76 75 -183q0 -108 -75 -184t-182 -76q-105 0 -180 76t-75 184q0 107 75 183t180 76q107 0 182 -76z" />
    <glyph glyph-name="ellipsis" unicode="&#x2026;" horiz-adv-x="1389" 
d="M150 249v-199h212v199h-212zM412 299v-299h-312v299h312zM595 249v-199h212v199h-212zM857 299v-299h-312v299h312zM1027 250v-199h212v199h-212zM1289 300v-299h-312v299h312z" />
    <glyph glyph-name="guilsinglleft" unicode="&#x2039;" horiz-adv-x="486" 
d="M336 630l-120 139l118 125v189l-184 -169v-268l186 -166v150zM386 368l-286 256v312l284 261v-323l-100 -106l102 -119v-281z" />
    <glyph glyph-name="guilsinglright" unicode="&#x203a;" horiz-adv-x="486" 
d="M150 480l186 166v268l-184 169v-189l118 -125l-120 -139v-150zM100 649l102 119l-100 106v323l284 -261v-312l-286 -256v281z" />
    <glyph glyph-name="fraction" unicode="&#x2044;" horiz-adv-x="1442" 
d="M1251 1388h-202l-858 -1338h203zM421 0h-321l921 1438h321z" />
    <glyph glyph-name="fraction" unicode="&#x2215;" horiz-adv-x="1442" 
d="M1251 1388h-202l-858 -1338h203zM421 0h-321l921 1438h321z" />
    <glyph glyph-name="franc" unicode="&#x20a3;" horiz-adv-x="2387" 
d="M362 631h673v176h-673v393h673v188h-885v-1338h212v581zM412 0h-312v1438h985v-288h-673v-293h673v-276h-673v-581zM1597 1150v-293h377v293h-377zM1547 50v581h131l336 -581h188l-319 581h337v757h-885v-1338h212zM2024 1200v-393h-477v393h477zM1285 0v1438h985v-857
h-302l319 -581h-302l-336 581h-52v-581h-312z" />
    <glyph glyph-name="lira" unicode="&#x20a4;" 
d="M678 474v165h-168v119h168v177h-168v265h329v-191h196v379h-736v-453h-146v-177h146v-119h-146v-165h146v-236h-149v-188h885v188h-525v236h168zM560 424v-136h525v-288h-985v288h149v136h-146v265h146v19h-146v277h146v453h836v-479h-296v191h-229v-165h168v-277h-168
v-19h168v-265h-168z" />
    <glyph glyph-name="peseta" unicode="&#x20a7;" horiz-adv-x="3555" 
d="M362 631h673v757h-885v-1338h212v581zM412 1150v-293h377v293h-377zM412 0h-312v1438h985v-857h-673v-581zM839 1200v-393h-477v393h477zM1689 50h211v1150h320v188h-885v-188h354v-1150zM1639 1150h-354v288h985v-288h-320v-1150h-311v1150zM3209 631v-393h-689v-188
h885v757h-673v393h673v188h-885v-757h689zM2470 581v857h985v-288h-673v-293h673v-857h-985v288h689v293h-689z" />
    <glyph glyph-name="Euro" unicode="&#x20ac;" horiz-adv-x="1330" 
d="M150 935v-177h145v-119h-145v-165h145v-424h885v188h-673v236h168v165h-168v119h168v177h-168v265h673v188h-885v-453h-145zM245 985v453h985v-288h-673v-165h168v-277h-168v-19h168v-265h-168v-136h673v-288h-985v424h-145v265h145v19h-145v277h145z" />
    <glyph glyph-name="afii61352" unicode="&#x2116;" horiz-adv-x="2882" 
d="M362 926l467 -876h206v1338h-196v-851l-467 851h-222v-1338h212v876zM412 0h-312v1438h301l388 -706v706h296v-1438h-286l-387 726v-726zM1335 1388v-1338h885v1338h-885zM1974 1150h-377v-862h377v862zM2270 1438v-1438h-985v1438h985zM2024 238h-477v962h477v-962z
M2520 249v-199h212v199h-212zM2782 299v-299h-312v299h312z" />
    <glyph glyph-name="trademark" unicode="&#x2122;" horiz-adv-x="1307" 
d="M327 744h81v575h159v69h-417v-69h177v-575zM764 1162l141 -418h41l139 422v-422h72v644h-80l-156 -429l-150 429h-88v-644h81v418zM277 1269h-177v169h517v-169h-159v-575h-181v575zM814 694h-181v744h173l116 -331l120 331h165v-744h-172v160l-53 -160h-113l-55 164
v-164z" />
    <glyph glyph-name="partialdiff" unicode="&#x2202;" 
d="M839 1200v-393h-689v-757h885v1338h-885v-188h689zM412 581v-293h377v293h-377zM100 1150v288h985v-1438h-985v857h689v293h-689zM839 631v-393h-477v393h477z" />
    <glyph glyph-name="Delta" unicode="&#x2206;" horiz-adv-x="1197" 
d="M737 304l-138 662l-127 -662h265zM1035 50l-286 1338h-278l-308 -1338h872zM411 254l186 966l201 -966h-387zM100 0l331 1438h359l307 -1438h-997z" />
    <glyph glyph-name="product" unicode="&#x220f;" horiz-adv-x="1064" 
d="M828 1513v-1614h86v1704h-764v-1704h87v1614h591zM287 1463v-1614h-187v1804h864v-1804h-186v1614h-491z" />
    <glyph glyph-name="summation" unicode="&#x2211;" horiz-adv-x="1064" 
d="M150 1489l351 -741l-351 -728v-121h764v96h-692l354 760l-354 758h692v90h-764v-114zM100 1653h864v-190h-663l330 -708l-330 -710h663v-196h-864v183l345 716l-345 730v175z" />
    <glyph glyph-name="minus" unicode="&#x2212;" horiz-adv-x="923" 
d="M150 631h623v176h-623v-176zM100 857h723v-276h-723v276z" />
    <glyph glyph-name="radical" unicode="&#x221a;" horiz-adv-x="1152" 
d="M310 656l-145 -1l235 -854h172l415 1546h-149l-360 -1293zM478 240l322 1157h252l-441 -1646h-249l-262 953l248 2z" />
    <glyph glyph-name="infinity" unicode="&#x221e;" horiz-adv-x="1515" 
d="M473 994q-73 0 -124 -52.5t-51 -126.5t51 -126t124 -52q72 0 123 52t51 126t-51 126.5t-123 52.5zM1037 993q-72 0 -123.5 -52.5t-51.5 -125.5q0 -74 51.5 -126t123.5 -52t123 52t51 126t-51 126t-123 52zM810 577q95 -98 230 -98q134 0 229.5 97.5t95.5 235.5
q0 137 -95.5 234t-229.5 97q-135 0 -230 -97q-18 -18 -53 -63q-34 46 -52 65q-95 96 -229 96q-136 0 -231 -97.5t-95 -234.5q0 -138 95 -235t231 -97q134 0 229 97q18 18 52 64q34 -46 53 -64zM631.5 976.5q65.5 -67.5 65.5 -161.5q0 -95 -65.5 -161.5t-158.5 -66.5
q-94 0 -159.5 66.5t-65.5 161.5q0 94 65.5 161.5t159.5 67.5q93 0 158.5 -67.5zM1195.5 976q65.5 -67 65.5 -161q0 -95 -65.5 -161.5t-158.5 -66.5t-159 66.5t-66 161.5q0 94 66 161t159 67t158.5 -67zM757 557q4 5 -16 -15q-110 -112 -265 -112q-157 0 -266.5 112
t-109.5 270t109.5 270t266.5 112q155 0 265 -112q20 -21 17 -17q-3 -4 17 16q109 112 265 112q155 0 265 -111.5t110 -269.5t-110 -270.5t-265 -112.5q-156 0 -265 113q-21 20 -18 15z" />
    <glyph glyph-name="integral" unicode="&#x222b;" horiz-adv-x="706" 
d="M150 -30v-102q30 -3 93.5 15.5t105.5 56.5t42 163t-5.5 600t10.5 555t69 83.5t91 3.5v111q-58 -4 -113 -9t-72.5 -48t-36 -76t-18.5 -1107q0 -135 -37.5 -193.5t-128.5 -52.5zM240 56q26 40 26 160q0 1088 21 1124.5t43.5 92.5t93 62.5t182.5 13.5v-214q-87 0 -119.5 -2
t-44.5 -61t-6.5 -531.5t5.5 -608.5t-54.5 -185t-128.5 -71t-158 -13v199q114 -6 140 34z" />
    <glyph glyph-name="approxequal" unicode="&#x2248;" horiz-adv-x="914" 
d="M165 921l50 -94q88 101 237 8.5t297 80.5l-61 75q-125 -114 -240 -30.5t-283 -39.5zM446 1023.5q113 -82.5 247 40.5l121 -149q-203 -237 -352 -144.5t-257 -30.5l-105 196q233 170 346 87.5zM165 597l50 -94q88 101 237 8.5t297 80.5l-61 75q-125 -114 -240 -30.5
t-283 -39.5zM446 699.5q113 -82.5 247 40.5l121 -149q-203 -237 -352 -144.5t-257 -30.5l-105 196q233 170 346 87.5z" />
    <glyph glyph-name="lessequal" unicode="&#x2264;" horiz-adv-x="923" 
d="M150 30h623v176h-623v-176zM100 256h723v-276h-723v276zM150 656l623 -311v171l-525 304l525 237v173l-623 -241v-333zM100 1023l723 280v-278l-466 -210l466 -270v-281l-723 361v398z" />
    <glyph glyph-name="greaterequal" unicode="&#x2265;" horiz-adv-x="923" 
d="M150 30h623v176h-623v-176zM100 256h723v-276h-723v276zM773 989l-623 241v-173l526 -237l-526 -304v-171l623 311v333zM823 625l-723 -361v281l466 270l-466 210v278l723 -280v-398z" />
    <glyph glyph-name="uniF001" unicode="&#xf001;" horiz-adv-x="1697" 
d="M362 631h673v176h-673v393h673v188h-885v-1338h212v581zM412 0h-312v1438h985v-288h-673v-293h673v-276h-673v-581zM1547 1388h-212v-1338h212v1338zM1597 0h-312v1438h312v-1438z" />
    <glyph glyph-name="uniF001" unicode="&#xfb01;" horiz-adv-x="1697" 
d="M362 631h673v176h-673v393h673v188h-885v-1338h212v581zM412 0h-312v1438h985v-288h-673v-293h673v-276h-673v-581zM1547 1388h-212v-1338h212v1338zM1597 0h-312v1438h312v-1438z" />
    <glyph glyph-name="uniF002" unicode="&#xf002;" horiz-adv-x="2370" 
d="M362 631h673v176h-673v393h673v188h-885v-1338h212v581zM412 0h-312v1438h985v-288h-673v-293h673v-276h-673v-581zM1547 1388h-212v-1338h885v188h-673v1150zM1597 288h673v-288h-985v1438h312v-1150z" />
    <glyph glyph-name="uniF002" unicode="&#xfb02;" horiz-adv-x="2370" 
d="M362 631h673v176h-673v393h673v188h-885v-1338h212v581zM412 0h-312v1438h985v-288h-673v-293h673v-276h-673v-581zM1547 1388h-212v-1338h885v188h-673v1150zM1597 288h673v-288h-985v1438h312v-1150z" />
    </font>
</defs>
</svg>
